<svg width="32" height="32" viewBox="0 0 32 32" fill="none" xmlns="http://www.w3.org/2000/svg">
<path d="M4.991 25.3853L12.9624 26.1824H20.9339L27.311 19.8053V11.8338L23.3253 4.8367L14.5567 3.41956L6.76243 6.6967L4.63672 15.2881L4.991 25.3853Z" fill="url(#paint0_linear)"/>
<path d="M10.3537 24.1742L10.7491 24.4087C12.41 25.3955 14.3141 25.9174 16.256 25.9184H16.2602C22.2237 25.9184 27.0772 21.0607 27.0797 15.0901C27.0807 12.1968 25.9565 9.4761 23.9136 7.42951C21.8707 5.38292 19.1544 4.25529 16.2643 4.25407C10.2961 4.25407 5.44265 9.1112 5.44046 15.0813C5.43949 17.1272 6.01146 19.1198 7.09446 20.844L7.35192 21.2536L6.25868 25.2491L10.3537 24.1742ZM3.1333 28.3442L4.98015 21.5936C3.84108 19.618 3.2418 17.3766 3.24253 15.0806C3.24545 7.89741 9.08466 2.05347 16.2602 2.05347C19.7423 2.05517 23.0105 3.41176 25.4686 5.87425C27.9259 8.33675 29.2791 11.6098 29.2779 15.0911C29.2747 22.2738 23.4345 28.1187 16.2602 28.1187C16.2597 28.1187 16.2607 28.1187 16.2602 28.1187H16.2546C14.0762 28.1178 11.9355 27.5708 10.0341 26.5327L3.1333 28.3442Z" fill="#09CE3D"/>
<path fill-rule="evenodd" clip-rule="evenodd" d="M13.0067 9.6345C12.7628 9.09241 12.5064 9.08142 12.2747 9.0719C12.0851 9.06385 11.8681 9.06434 11.6513 9.06434C11.4343 9.06434 11.082 9.14586 10.7841 9.4717C10.4859 9.79754 9.64551 10.5852 9.64551 12.1873C9.64551 13.7894 10.8112 15.3374 10.9735 15.5548C11.1362 15.7721 13.2236 19.1647 16.5299 20.4698C19.2774 21.5545 19.8365 21.3387 20.4331 21.2845C21.0294 21.2304 22.3574 20.4969 22.6283 19.7366C22.8994 18.9763 22.8994 18.3249 22.8182 18.1887C22.7368 18.0527 22.5201 17.9714 22.1946 17.8086C21.8693 17.6458 20.2702 16.858 19.972 16.7494C19.6738 16.6407 19.4571 16.5866 19.2401 16.9124C19.0234 17.2382 18.4004 17.9714 18.2105 18.1887C18.0208 18.4061 17.8311 18.4332 17.5056 18.2704C17.1804 18.1072 16.1328 17.7637 14.8901 16.6544C13.9231 15.7913 13.2705 14.7255 13.0805 14.3996C12.8908 14.0738 13.0603 13.8976 13.2234 13.7352C13.3694 13.5893 13.5486 13.355 13.7115 13.1648C13.8736 12.9747 13.928 12.839 14.0363 12.622C14.1447 12.4045 14.0906 12.2144 14.0092 12.0516C13.928 11.8888 13.2958 10.2784 13.0067 9.6345Z" fill="white"/>
<defs>
<linearGradient id="paint0_linear" x1="16.2054" y1="27.8894" x2="16.2054" y2="2.50886" gradientUnits="userSpaceOnUse">
<stop stop-color="#20B038"/>
<stop offset="0.0078125" stop-color="#20B038"/>
<stop offset="0.015625" stop-color="#21B039"/>
<stop offset="0.0234375" stop-color="#21B139"/>
<stop offset="0.03125" stop-color="#22B139"/>
<stop offset="0.0390625" stop-color="#22B13A"/>
<stop offset="0.046875" stop-color="#23B23A"/>
<stop offset="0.0546875" stop-color="#23B23B"/>
<stop offset="0.0625" stop-color="#24B23B"/>
<stop offset="0.0703125" stop-color="#24B33B"/>
<stop offset="0.078125" stop-color="#25B33C"/>
<stop offset="0.0859375" stop-color="#25B33C"/>
<stop offset="0.09375" stop-color="#26B33C"/>
<stop offset="0.101562" stop-color="#26B43D"/>
<stop offset="0.109375" stop-color="#27B43D"/>
<stop offset="0.117188" stop-color="#27B43E"/>
<stop offset="0.125" stop-color="#28B53E"/>
<stop offset="0.132813" stop-color="#28B53E"/>
<stop offset="0.140625" stop-color="#29B53F"/>
<stop offset="0.148438" stop-color="#29B53F"/>
<stop offset="0.15625" stop-color="#2AB640"/>
<stop offset="0.164063" stop-color="#2AB640"/>
<stop offset="0.171875" stop-color="#2BB640"/>
<stop offset="0.179688" stop-color="#2BB741"/>
<stop offset="0.1875" stop-color="#2CB741"/>
<stop offset="0.195313" stop-color="#2CB742"/>
<stop offset="0.203125" stop-color="#2DB842"/>
<stop offset="0.210937" stop-color="#2DB842"/>
<stop offset="0.21875" stop-color="#2EB843"/>
<stop offset="0.226563" stop-color="#2EB843"/>
<stop offset="0.234375" stop-color="#2FB944"/>
<stop offset="0.242188" stop-color="#2FB944"/>
<stop offset="0.25" stop-color="#30B944"/>
<stop offset="0.257813" stop-color="#30BA45"/>
<stop offset="0.265625" stop-color="#31BA45"/>
<stop offset="0.273438" stop-color="#31BA45"/>
<stop offset="0.28125" stop-color="#32BB46"/>
<stop offset="0.289063" stop-color="#32BB46"/>
<stop offset="0.296875" stop-color="#33BB47"/>
<stop offset="0.304688" stop-color="#33BB47"/>
<stop offset="0.3125" stop-color="#34BC47"/>
<stop offset="0.320313" stop-color="#34BC48"/>
<stop offset="0.328125" stop-color="#35BC48"/>
<stop offset="0.335938" stop-color="#35BD49"/>
<stop offset="0.34375" stop-color="#36BD49"/>
<stop offset="0.351563" stop-color="#36BD49"/>
<stop offset="0.359375" stop-color="#37BE4A"/>
<stop offset="0.367188" stop-color="#37BE4A"/>
<stop offset="0.375" stop-color="#38BE4B"/>
<stop offset="0.382813" stop-color="#38BE4B"/>
<stop offset="0.390625" stop-color="#39BF4B"/>
<stop offset="0.398438" stop-color="#39BF4C"/>
<stop offset="0.40625" stop-color="#3ABF4C"/>
<stop offset="0.414063" stop-color="#3AC04D"/>
<stop offset="0.421875" stop-color="#3BC04D"/>
<stop offset="0.429687" stop-color="#3BC04D"/>
<stop offset="0.4375" stop-color="#3CC04E"/>
<stop offset="0.445313" stop-color="#3CC14E"/>
<stop offset="0.453125" stop-color="#3DC14E"/>
<stop offset="0.460937" stop-color="#3DC14F"/>
<stop offset="0.46875" stop-color="#3EC24F"/>
<stop offset="0.476563" stop-color="#3EC250"/>
<stop offset="0.484375" stop-color="#3FC250"/>
<stop offset="0.492187" stop-color="#3FC350"/>
<stop offset="0.5" stop-color="#40C351"/>
<stop offset="0.507813" stop-color="#40C351"/>
<stop offset="0.515625" stop-color="#41C352"/>
<stop offset="0.523438" stop-color="#41C452"/>
<stop offset="0.53125" stop-color="#42C452"/>
<stop offset="0.539062" stop-color="#42C453"/>
<stop offset="0.546875" stop-color="#43C553"/>
<stop offset="0.554688" stop-color="#43C554"/>
<stop offset="0.5625" stop-color="#44C554"/>
<stop offset="0.570313" stop-color="#44C654"/>
<stop offset="0.578125" stop-color="#45C655"/>
<stop offset="0.585938" stop-color="#45C655"/>
<stop offset="0.59375" stop-color="#46C655"/>
<stop offset="0.601563" stop-color="#46C756"/>
<stop offset="0.609375" stop-color="#47C756"/>
<stop offset="0.617188" stop-color="#47C757"/>
<stop offset="0.625" stop-color="#48C857"/>
<stop offset="0.632813" stop-color="#48C857"/>
<stop offset="0.640625" stop-color="#49C858"/>
<stop offset="0.648438" stop-color="#49C858"/>
<stop offset="0.65625" stop-color="#4AC959"/>
<stop offset="0.664063" stop-color="#4AC959"/>
<stop offset="0.671875" stop-color="#4BC959"/>
<stop offset="0.679688" stop-color="#4BCA5A"/>
<stop offset="0.6875" stop-color="#4CCA5A"/>
<stop offset="0.695313" stop-color="#4CCA5B"/>
<stop offset="0.703125" stop-color="#4DCB5B"/>
<stop offset="0.710938" stop-color="#4DCB5B"/>
<stop offset="0.71875" stop-color="#4ECB5C"/>
<stop offset="0.726563" stop-color="#4ECB5C"/>
<stop offset="0.734375" stop-color="#4FCC5D"/>
<stop offset="0.742188" stop-color="#4FCC5D"/>
<stop offset="0.75" stop-color="#50CC5D"/>
<stop offset="0.757812" stop-color="#50CD5E"/>
<stop offset="0.765625" stop-color="#51CD5E"/>
<stop offset="0.773438" stop-color="#51CD5E"/>
<stop offset="0.78125" stop-color="#52CE5F"/>
<stop offset="0.789063" stop-color="#52CE5F"/>
<stop offset="0.796875" stop-color="#53CE60"/>
<stop offset="0.804687" stop-color="#53CE60"/>
<stop offset="0.8125" stop-color="#54CF60"/>
<stop offset="0.820313" stop-color="#54CF61"/>
<stop offset="0.828125" stop-color="#55CF61"/>
<stop offset="0.835938" stop-color="#55D062"/>
<stop offset="0.84375" stop-color="#56D062"/>
<stop offset="0.851562" stop-color="#56D062"/>
<stop offset="0.859375" stop-color="#57D163"/>
<stop offset="0.867187" stop-color="#57D163"/>
<stop offset="0.875" stop-color="#58D164"/>
<stop offset="0.882813" stop-color="#58D164"/>
<stop offset="0.890625" stop-color="#59D264"/>
<stop offset="0.898438" stop-color="#59D265"/>
<stop offset="0.90625" stop-color="#5AD265"/>
<stop offset="0.914062" stop-color="#5AD366"/>
<stop offset="0.921875" stop-color="#5BD366"/>
<stop offset="0.929687" stop-color="#5BD366"/>
<stop offset="0.9375" stop-color="#5CD367"/>
<stop offset="0.945313" stop-color="#5CD467"/>
<stop offset="0.953125" stop-color="#5DD467"/>
<stop offset="0.960938" stop-color="#5DD468"/>
<stop offset="0.96875" stop-color="#5ED568"/>
<stop offset="0.976562" stop-color="#5ED569"/>
<stop offset="0.984375" stop-color="#5FD569"/>
<stop offset="0.992188" stop-color="#5FD669"/>
<stop offset="1" stop-color="#60D66A"/>
</linearGradient>
</defs>
</svg>
