<svg width="26" height="27" viewBox="0 0 26 27" fill="none" xmlns="http://www.w3.org/2000/svg">
<g clip-path="url(#clip0)">
<path d="M25.9876 13.5536C25.9876 12.4634 25.8991 11.6679 25.7077 10.8429H13.259V15.7634H20.5661C20.4188 16.9862 19.6233 18.8277 17.8554 20.0652L17.8306 20.2299L21.7667 23.2791L22.0394 23.3063C24.5438 20.9934 25.9876 17.5902 25.9876 13.5536Z" fill="#4285F4"/>
<path d="M13.259 26.518C16.8389 26.518 19.8442 25.3394 22.0394 23.3064L17.8554 20.0652C16.7358 20.846 15.2331 21.3911 13.259 21.3911C9.75274 21.3911 6.77685 19.0782 5.71603 15.8813L5.56054 15.8946L1.46777 19.062L1.41425 19.2108C3.59459 23.542 8.0732 26.518 13.259 26.518Z" fill="#34A853"/>
<path d="M5.71604 15.8813C5.43613 15.0563 5.27414 14.1723 5.27414 13.2589C5.27414 12.3455 5.43613 11.4616 5.70131 10.6366L5.6939 10.4609L1.54984 7.24255L1.41426 7.30705C0.515633 9.1044 0 11.1227 0 13.2589C0 15.3951 0.515633 17.4133 1.41426 19.2107L5.71604 15.8813Z" fill="#FBBC05"/>
<path d="M13.259 5.12677C15.7487 5.12677 17.4281 6.20222 18.3858 7.10095L22.1277 3.44734C19.8296 1.31117 16.8389 0 13.259 0C8.0732 0 3.59459 2.97588 1.41425 7.30712L5.70131 10.6366C6.77685 7.43976 9.75274 5.12677 13.259 5.12677Z" fill="#EB4335"/>
</g>
<defs>
<clipPath id="clip0">
<rect width="26" height="26.6094" fill="white"/>
</clipPath>
</defs>
</svg>
