<svg width="27" height="22" viewBox="0 0 27 22" fill="none" xmlns="http://www.w3.org/2000/svg">
<g clip-path="url(#clip0)">
<path d="M8.52486 21.8693C18.6463 21.8693 24.1813 13.4907 24.1813 6.22508C24.1813 5.9871 24.1764 5.7502 24.1657 5.51436C25.2401 4.73825 26.174 3.76972 26.9105 2.66718C25.9246 3.10509 24.8636 3.39988 23.7506 3.5328C24.8866 2.8521 25.7588 1.7753 26.1703 0.491639C25.1071 1.12143 23.9297 1.57916 22.6761 1.82629C21.672 0.757562 20.2424 0.0891113 18.6595 0.0891113C15.6208 0.0891113 13.1566 2.55149 13.1566 5.58671C13.1566 6.01818 13.2048 6.43786 13.2992 6.84042C8.7259 6.61048 4.67059 4.42257 1.95655 1.0957C1.48398 1.90825 1.21149 2.85212 1.21149 3.85925C1.21149 5.76684 2.18295 7.45087 3.66021 8.43606C2.75742 8.40818 1.90935 8.16055 1.16811 7.74837C1.1673 7.77144 1.16729 7.79394 1.16729 7.81859C1.16729 10.4814 3.06405 12.7047 5.58189 13.2085C5.1195 13.3344 4.63301 13.4019 4.1309 13.4019C3.77688 13.4019 3.43196 13.3671 3.09671 13.3028C3.79725 15.4875 5.82866 17.0772 8.23706 17.1217C6.35372 18.5967 3.98124 19.4752 1.40274 19.4752C0.959126 19.4752 0.520885 19.45 0.0901718 19.3991C2.52548 20.9589 5.41719 21.8689 8.52516 21.8689" fill="#1DA1F2"/>
</g>
<defs>
<clipPath id="clip0">
<rect width="27" height="21.96" fill="white"/>
</clipPath>
</defs>
</svg>
