<svg width="17" height="12" viewBox="0 0 17 12" fill="none" xmlns="http://www.w3.org/2000/svg">
<g clip-path="url(#clip0)">
<path d="M16.3999 1.9066C16.2154 1.21729 15.6751 0.673795 14.9897 0.488211C13.7377 0.143555 8.72946 0.143555 8.72946 0.143555C8.72946 0.143555 3.72124 0.143555 2.46919 0.474955C1.79703 0.660539 1.24349 1.21729 1.05898 1.9066C0.729492 3.16592 0.729492 5.77736 0.729492 5.77736C0.729492 5.77736 0.729492 8.40205 1.05898 9.64811C1.24349 10.3374 1.78385 10.8809 2.46919 11.0665C3.73442 11.4112 8.72946 11.4112 8.72946 11.4112C8.72946 11.4112 13.7377 11.4112 14.9897 11.0798C15.6751 10.8942 16.2154 10.3507 16.3999 9.66137C16.7294 8.40205 16.7294 5.79061 16.7294 5.79061C16.7294 5.79061 16.7426 3.16592 16.3999 1.9066Z" fill="#FF0000"/>
<path d="M11.2995 5.77734L7.13477 3.36475V8.18993L11.2995 5.77734Z" fill="white"/>
</g>
<defs>
<clipPath id="clip0">
<rect width="16" height="11.2676" fill="white" transform="translate(0.729492 0.143555)"/>
</clipPath>
</defs>
</svg>
